<?xml version="1.0" encoding="iso-8859-1"?>
<!-- Generator: Adobe Illustrator 18.0.0, SVG Export Plug-In . SVG Version: 6.00 Build 0)  -->
<!DOCTYPE svg PUBLIC "-//W3C//DTD SVG 1.1//EN" "http://www.w3.org/Graphics/SVG/1.1/DTD/svg11.dtd">
<svg version="1.1" id="Capa_1" xmlns="http://www.w3.org/2000/svg" xmlns:xlink="http://www.w3.org/1999/xlink" x="0px" y="0px"
	 viewBox="0 0 16 16" style="enable-background:new 0 0 16 16;" xml:space="preserve">
<g id="Delete">
	<g>
		<path style="fill-rule:evenodd;clip-rule:evenodd;" d="M10.121,4.464L8,6.586L5.879,4.464L4.464,5.879L6.586,8l-2.121,2.121
			l1.414,1.414L8,9.414l2.121,2.121l1.414-1.414L9.414,8l2.121-2.121L10.121,4.464z M13.657,2.343c-3.124-3.124-8.19-3.124-11.314,0
			c-3.124,3.124-3.124,8.19,0,11.314c3.124,3.124,8.19,3.124,11.314,0C16.781,10.533,16.781,5.467,13.657,2.343z M12.243,12.243
			c-2.343,2.343-6.142,2.343-8.485,0s-2.343-6.142,0-8.485c2.343-2.343,6.142-2.343,8.485,0
			C14.586,6.101,14.586,9.899,12.243,12.243z"/>
	</g>
</g>
<g>
</g>
<g>
</g>
<g>
</g>
<g>
</g>
<g>
</g>
<g>
</g>
<g>
</g>
<g>
</g>
<g>
</g>
<g>
</g>
<g>
</g>
<g>
</g>
<g>
</g>
<g>
</g>
<g>
</g>
</svg>
